<?xml version="1.0" encoding="UTF-8"?><svg id="Layer_2" xmlns="http://www.w3.org/2000/svg" width="103" height="103" viewBox="0 0 103 103"><defs><style>.cls-1{fill:#fcfcfc;}.cls-1,.cls-2,.cls-3,.cls-4,.cls-5{stroke-width:0px;}.cls-2{fill:#f6f9f8;}.cls-3{fill:#f3f6f6;}.cls-4{fill:#004e41;}.cls-5{fill:#bdd0cd;}</style></defs><g id="Layer_2-2"><circle class="cls-4" cx="51.5" cy="51.5" r="51.5"/><path class="cls-1" d="M45.96,84.94c.04-18.81.11-37.62.08-56.43,0-1.44-.72-2.88-1.11-4.32.37-.62.75-1.24,1.12-1.86,2.2,0,4.4-.02,6.6-.03.11.33.23.65.34.98-.02,19.91-.04,39.82-.04,59.73,0,.67.22,1.35.33,2.02-.14.15-.17.31-.08.49h-7.1c-.05-.19-.1-.39-.15-.58h.01Z"/><path class="cls-3" d="M67.04,22.32c1.79.04,3.62-.09,5.38.18,2.98.45,5.28,3.24,4.57,5.93-.35,1.32-1.98,2.31-3.02,3.45-1.15-1.05-2.57-1.94-3.37-3.2-.64-1-.26-2.63-.85-3.69-.49-.87-1.74-1.33-2.65-1.97-.02-.23-.03-.46-.05-.69h-.01Z"/><path class="cls-2" d="M31.62,22.99c-2.47.57-2.47,2.64-3.01,4.54-.41,1.45-1.27,2.95-2.38,3.93-.5.45-2.77,0-3.04-.59-.67-1.46-1.13-3.34-.82-4.88.47-2.33,2.47-3.46,4.86-3.6,1.48-.09,2.96-.04,4.45-.06-.02.22-.04.44-.06.66Z"/><path class="cls-2" d="M31.62,22.99c.02-.22.04-.44.06-.66h14.37c-.37.62-.75,1.24-1.12,1.86-3.36-.35-6.72-.72-10.08-1.05-1.07-.1-2.16-.1-3.24-.15h.01Z"/><path class="cls-2" d="M67.04,22.32c.02.23.03.46.05.69-4.7.09-9.39.18-14.09.27-.11-.33-.23-.65-.34-.98,4.8,0,9.59.01,14.39.02h0Z"/><path class="cls-5" d="M53.21,85.52c-.08-.18-.06-.35.08-.49h4.23v.49h-4.32.01Z"/><path class="cls-5" d="M45.96,84.94c.05.19.1.39.15.58h-4.58v-.58h4.43Z"/></g></svg>