<?xml version="1.0" encoding="UTF-8"?><svg id="Layer_2" xmlns="http://www.w3.org/2000/svg" width="1389" height="209.73" viewBox="0 0 1389 209.73"><defs><style>.cls-1{fill:#f9fbfa;}.cls-1,.cls-2,.cls-3,.cls-4,.cls-5,.cls-6,.cls-7{stroke-width:0px;}.cls-2{fill:#f8fafa;}.cls-3{fill:#f9fafa;}.cls-4{fill:#f9fbfb;}.cls-5{fill:#fafbfb;}.cls-6{fill:#fdfefe;}.cls-7{fill:#f7f9f9;}</style></defs><g id="Layer_2-2"><path class="cls-5" d="M176.34,205.88h14.44c0-2.03,0-3.62,0-5.21,0-40.83,0-81.65-.02-122.48,0-2.32-.14-4.67-.51-6.95-1.53-9.2-4.16-11.37-13.61-11.56-1.21-.02-2.41-.24-4.94-.51,1.69-.9,2.17-1.39,2.66-1.39,6.33-.04,12.68-.35,18.99.07,10.97.72,16.15,6.27,16.72,17.2.04.77,0,1.54,0,4.01,7.99-15.42,19.62-23.31,35.28-24.87,15.5-1.55,28.39,3.84,39.06,15.8,7.92-8.04,17.53-12.96,28.55-14.88,17.87-3.11,34.59-.69,48.69,11.69,9.68,8.5,12.9,19.85,12.9,32.34,0,28.83,0,57.66.02,86.49,0,2.33.01,4.67.21,6.99.82,9.83,4.01,12.8,13.77,13.05,1.18.03,2.35.29,4.42.56-6.69,2.65-25.45,1.59-30.38-1.23-5.57-3.19-7.16-8.52-7.54-14.36-.24-3.76-.05-7.56-.43-11.52-4.33,9.69-10.56,17.62-19.74,22.9-14.36,8.27-29.49,10.31-45.02,4.05-20.61-8.31-27.83-34.42-15.53-54.5,5.54-9.05,13.33-15.65,22.24-21.09,2.4-1.47,4.86-2.86,8-4.69-4.15-1.51-7.78-2.76-11.36-4.16-11.88-4.62-19.21-12.47-19.64-26-.61-18.96-12.39-30.34-30.6-30.22-18.43.12-32.59,13.17-32.76,31.3-.32,35.82-.08,71.65-.05,107.48,0,.3.2.6.52,1.53h13.87c0,.43,0,.85,0,1.28h-48.18c0-.37,0-.74-.01-1.11ZM354.94,124.14h.03c0-12.16,0-24.32,0-36.48,0-.33,0-.67-.01-1-.27-18.01-13.47-30.57-31.5-29.98-14.08.46-26.34,10.19-29.48,23.39-3.95,16.59,2.28,35.18,14.2,41.61,1.41.76,3.78.48,5.43-.11,6.73-2.37,13.27-5.28,20.04-7.52,5.02-1.66,8.96.11,10.05,3.73,1,3.32-1.3,7.05-6.46,7.84-7.99,1.22-16.16,1.3-24.25,1.92-1.59.12-3.45.04-4.69.82-12.14,7.69-21.02,17.66-23.11,32.62-2.19,15.74,5.7,30.52,19.44,35.65,24.07,8.98,49.52-8.38,50.25-34.51.35-12.65.06-25.32.06-37.98Z"/><path class="cls-7" d="M553.43,208.26c-9.09-.74-18.27-.96-27.25-2.4-5.32-.85-8.14-5.56-9.16-10.78-.57-2.92-.71-5.95-.72-8.94-.05-27.66.05-55.32-.07-82.97-.08-18.67-8.94-31.48-25.34-37.16-25.24-8.75-51.46,8.78-51.86,35.46-.52,34.48-.13,68.97-.13,104.15h14.06c0,.45,0,.91-.01,1.36h-47.91c-.02-.35-.04-.71-.06-1.06h14.24v-5.6c0-40.49.01-80.97-.02-121.46,0-3.16-.02-6.37-.58-9.46-1.24-6.87-4.76-9.63-11.72-9.71-1.72-.02-3.44,0-5.88,0,.91-1.2,1.19-1.88,1.47-1.88,6.66-.05,13.36-.44,19.98.09,10.82.86,15.97,6.7,16.37,17.64.09,2.41.01,4.84.41,7.39,4.79-9.31,11.16-16.95,20.25-22.07,27.29-15.38,65.12-4.96,73.83,26.65,1.53,5.54,2.16,11.48,2.21,17.24.23,26.99.1,53.98.11,80.97,0,2.16,0,4.34.13,6.49.61,9.68,5.05,14.44,13.99,13.45,1.24-.14,2.53.19,3.8.3-.04.76-.08,1.52-.12,2.29Z"/><path class="cls-5" d="M1329.82,207.7c-9.24-.69-18.62,1.58-27.71-1.92-6.39-2.46-8.75-7.87-9.14-14.24-.25-4.15-.05-8.32-.05-13.95-1.1,2.15-1.64,3.11-2.1,4.11-11.48,25.09-44.33,35.62-68.29,21.87-14.66-8.42-20.43-28.62-13.17-46.32,4.98-12.13,14.33-20.18,25.19-26.79,2.49-1.52,5.03-2.94,7.88-4.61-3.97-1.98-7.63-3.5-11-5.53-21.16-12.72-22.54-40.98-2.78-55.74,17.52-13.09,45.62-14.35,64.18-2.74,13.28,8.3,19.37,20.57,19.37,36.06,0,29.33,0,58.65.03,87.98,0,2.65.12,5.33.49,7.96,1.29,9.18,4.19,11.68,13.34,11.83,1.27.02,2.54.18,3.81.28-.02.59-.04,1.17-.07,1.76ZM1291.93,123.8c.31,0,.62,0,.93,0,0-12.49.16-24.98-.04-37.47-.28-17.14-12.86-29.5-29.86-29.66-14.63-.14-27.31,9.17-30.99,22.75-4.44,16.4,1.66,35.12,13.94,42.11,1.42.8,3.8.76,5.42.2,6.89-2.4,13.58-5.39,20.51-7.68,5.08-1.68,9.07-.15,9.67,3.24.82,4.6-2.64,6.37-6.02,8-.89.43-1.86.89-2.82.96-7.09.5-14.19.86-21.28,1.36-1.9.13-4.34-.06-5.56,1.01-5.83,5.11-12.3,9.91-16.74,16.1-9.98,13.92-8.08,35.13,3.19,45.51,10.04,9.25,21.93,10.75,34.47,6.8,13.85-4.36,23.37-13.98,24.84-28.36,1.51-14.81.34-29.9.34-44.86Z"/><path class="cls-2" d="M810.72,59.41c-1.4.09-2.82.36-4.21.25-8.13-.65-13.68,3.32-16.39,10.45-3.82,10.08-6.95,20.43-10.1,30.74-10.44,34.16-20.76,68.36-31.13,102.54-.38,1.27-.87,2.5-1.42,4.06-12.62,0-25.29.54-37.89-.17-10.38-.59-15.19-6.97-15.35-18.46-.16-10.99-.04-21.99-.04-32.99,0-31.82,0-63.63,0-96.15h-14.17l.03-1.34h47.81c.04.3.09.61.13.91h-14.14c0,2.4,0,4.01,0,5.62,0,40.82,0,81.63.01,122.45,0,2.33-.04,4.69.29,6.98,1.34,9.24,7.36,13.45,16.32,11.18,1.19-.3,2.29-2.47,2.73-3.97,9.29-31.38,18.48-62.8,27.69-94.21,2.99-10.2,5.91-20.43,8.99-30.61,4.1-13.55,11.51-18.98,25.61-18.99,5.06,0,10.12,0,15.18,0,.02.57.04,1.14.06,1.71Z"/><path class="cls-5" d="M95.12,15.32v190.34h14.67l-.02,1.29h-50.65l-.11-.74h14.6V15.5c-14.59,0-29.18-.19-43.77.1-5.09.1-7.31,4.22-8.28,8.7-.6,2.74-.54,5.62-.9,8.42-.82,6.37-5.75,10.56-11.56,9.92C3.54,42.04-.27,37.09.01,30.85.46,20.93,6.59,13.79,16.62,13.72c44.99-.32,89.98-.37,134.97-.03,11.43.09,18.57,9.71,16.64,20.28-.86,4.73-3.18,8.05-8.23,8.67-4.88.59-9.66-2.51-11.08-7.43-.73-2.51-.7-5.25-.99-7.88-.97-8.79-4.47-11.99-13.23-12-13.12-.02-26.23,0-39.57,0Z"/><path class="cls-1" d="M606.55,55.22c12.13.59,22.16,2.49,30.73,9.07,5.15,3.95,7.63,9.11,6.71,15.68-.65,4.62-3.74,7.58-8.23,7.98-4.7.43-8.46-2.11-9.72-6.78-.47-1.75-.62-3.61-.78-5.43-.87-10.13-6.11-16.04-15.76-17.74-8.62-1.52-17.93,3.07-21.37,11.26-5.49,13.08-5.26,28.75,9.79,38.36,7.93,5.06,16.62,8.99,25.17,13.01,10.83,5.1,21.94,9.61,30.83,18.04,21.99,20.84,15.14,55.21-13.16,65.87-34.1,12.85-68.82-6.99-74.68-43.09-1.12-6.92-.49-14.2.02-21.26.19-2.57,1.79-5.78,3.81-7.27,2.21-1.63,5.79-2.54,8.49-2.08,4.16.71,6.34,4.49,6.37,8.53.04,4.26-.68,8.59-1.54,12.79-1.97,9.54-3.25,19.02-.27,28.6,4.2,13.53,15.85,22.61,30.32,23.53,13.27.84,26.32-7.14,31.61-19.34,5.39-12.43,2.22-27.07-8.94-34.9-8.08-5.67-17.32-9.71-26.07-14.42-9.77-5.25-20.16-9.6-29.24-15.86-12.87-8.86-16.44-22.25-13.19-37.13,3.29-15.08,14.09-22.74,28.4-26.06,4.02-.93,8.23-1.06,10.73-1.36Z"/><path class="cls-4" d="M1087.54,149.15c.72-3.42,1.23-7.75,2.58-11.8,1.78-5.33,5.82-7.86,10.05-7.12,4.56.8,7.91,4.71,7.82,10.14-.07,4.11-.8,8.26-1.67,12.31-2.39,11.1-3.28,22.06,1.64,32.78,6.14,13.37,20.53,20.67,35.98,18.19,14.38-2.31,24.96-13.33,26.36-27.91,1.32-13.75-5.43-23.46-16.83-29.86-8.95-5.03-18.63-8.74-27.77-13.46-7.65-3.95-15.44-7.88-22.36-12.93-12.15-8.85-15.66-21.6-12.94-35.91,2.75-14.47,12.47-22.82,26.25-26.33,15.51-3.96,30.42-2.34,43.82,7.11,5.11,3.61,7.56,8.77,6.74,15.15-.69,5.42-4.17,8.54-9.31,8.49-4.78-.04-8.18-3.16-9.02-8.32-.21-1.31-.21-2.66-.34-3.98-.99-10.21-6.65-16.35-16.38-17.8-9.11-1.36-17.91,3.88-21.44,12.76-6.52,16.42-1.52,30.83,14.51,39.81,8.24,4.61,17.03,8.24,25.62,12.21,11.36,5.26,22.75,10.53,30.63,20.8,16.75,21.81,8.17,51.44-17.58,61.08-34.72,13-69.76-7.81-75.03-44.59-.47-3.29-.83-6.59-1.35-10.81Z"/><path class="cls-3" d="M937.38,114.82h-112.14c.57,9.28.47,18.22,1.79,26.94,2.93,19.4,11.07,36.01,28.87,46.07,23.48,13.28,58.92,12.59,78.69-9.62,2.9-3.26,5.24-7.01,7.84-10.53l1.38.9c-3.65,5.58-6.72,11.68-11.06,16.65-16.37,18.73-37.84,25.2-61.93,23.79-40.47-2.36-62.18-34.73-63.9-68.63-1.4-27.6,6.37-51.78,28.65-69.56,25.15-20.07,67.07-17.73,88.52,4.48,10.55,10.92,15.61,25.74,13.31,39.51ZM826.09,112.35c1.05.1,1.71.21,2.36.22,26.16,0,52.31.01,78.47-.03,1.64,0,3.29-.37,4.93-.58,5.14-.65,7.6-3.89,7.96-8.74.94-12.71-2.91-23.71-12.56-32.25-19.54-17.29-51.35-13.76-68.02,7.45-7.72,9.83-11.48,21.23-13.15,33.93Z"/><path class="cls-2" d="M951.45,57.1c8.96.71,18,.87,26.84,2.31,5.74.93,8.59,5.88,9.66,11.51.36,1.91.53,3.86.9,6.66,2.14-3.14,3.64-5.68,5.48-7.96,11.52-14.28,31.04-19.42,49.27-13.06,17.02,5.93,27.44,20.95,27.68,39.86.08,6.73-3.48,11.07-9.27,11.29-5.89.23-9.7-3.69-9.91-10.65-.32-10.87-3.37-20.47-12.96-26.61-10.9-6.97-22.42-6.85-33.74-1.11-11.29,5.72-16.71,15.4-16.8,27.93-.14,18.99-.04,37.98-.04,56.98,0,16.96,0,33.92,0,51.56h14.29c0,.42-.02.83-.03,1.25h-48.01c-.04-.27-.07-.54-.11-.82h14.28c0-2.35,0-3.94,0-5.52,0-40.98,0-81.97,0-122.95,0-1.33.05-2.67-.05-4-.71-10.03-4.48-15.17-14.38-14.13-1.06.11-2.17-.23-3.26-.37.06-.73.12-1.46.17-2.19Z"/><path class="cls-6" d="M1351.92,1.14h-13.98c0-.38,0-.76.01-1.14h33.36v5.51c0,59.96-.01,119.92.03,179.88,0,3.48.15,7.01.7,10.44,1.11,6.82,4.74,9.74,11.6,9.82,1.75.02,3.5,0,5.35,0-.15.97-.2,1.55-.24,1.55-7.79-.02-15.64.57-23.34-.3-8.24-.93-12.43-6.13-13.33-14.43-.23-2.14-.16-4.32-.16-6.49,0-59.46,0-118.92,0-178.38,0-1.82,0-3.63,0-6.46Z"/></g></svg>