<?xml version="1.0" encoding="UTF-8"?><svg id="Layer_2" xmlns="http://www.w3.org/2000/svg" width="884.56" height="89.77" viewBox="0 0 884.56 89.77"><defs><style>.cls-1{fill:#92b2ad;}.cls-1,.cls-2,.cls-3,.cls-4,.cls-5,.cls-6,.cls-7,.cls-8,.cls-9,.cls-10,.cls-11,.cls-12,.cls-13,.cls-14,.cls-15,.cls-16,.cls-17,.cls-18,.cls-19{stroke-width:0px;}.cls-2{fill:#fbfcfb;}.cls-3{fill:#f6f8f8;}.cls-4{fill:#fcfcfc;}.cls-5{fill:#f4f7f6;}.cls-6{fill:#82a7a1;}.cls-7{fill:#f5f7f7;}.cls-8{fill:#fafbfb;}.cls-9{fill:#f6f9f8;}.cls-10{fill:#fdfdfd;}.cls-11{fill:#fcfdfd;}.cls-12{fill:#8cafa9;}.cls-13{fill:#f3f6f6;}.cls-14{fill:#f8faf9;}.cls-15{fill:#f5f8f7;}.cls-16{fill:#bdd0cd;}.cls-17{fill:#95b5af;}.cls-18{fill:#f7f9f9;}.cls-19{fill:#b0c7c4;}</style></defs><g id="Layer_1-2"><path class="cls-14" d="M62.07,66.58c0-13.42.02-26.84.02-40.25,0-5.42-.47-6.02-5.5-7.18,8.45-.97,10.41-.11,12.21,5.61,2.82-4.18,6.5-6.72,11.49-7.05,4.9-.32,8.96,1.42,12.4,5.04,5.51-4.76,11.81-6.15,18.73-4.39,7.01,1.79,10.74,6.64,10.78,13.84.04,9.64-.01,19.28.02,28.92.02,4.58.97,5.67,5.23,6.3-7.25.67-11.53,1.35-11.89-8.47-2.87,5.26-6.92,8.24-12.48,9.16-5.91.98-11.54-1.24-14.04-5.69-2.62-4.68-1.93-10.93,2.11-15.2,2.21-2.33,4.96-4.16,7.6-6.32-.93-.36-1.92-.75-2.92-1.11-4.28-1.58-6.59-4.46-6.72-9.16-.14-5.29-3.83-8.9-9.07-9.26-5.34-.37-10.23,3.01-11.24,7.86-.28,1.35-.36,2.76-.36,4.14-.03,11.03-.01,22.06,0,33.1l-.34,1.29h-5.86c-.05-.39-.11-.79-.16-1.18ZM115.88,40.53s.02,0,.02,0c0-3.77,0-7.55,0-11.32,0-.2,0-.4,0-.6-.23-5.03-2.71-8.46-6.97-9.64-5.05-1.39-10.23.84-12.36,5.33-2.29,4.81-.72,12.31,3.27,14.89.74.48,2.04.49,2.94.23,2.2-.61,4.28-1.68,6.49-2.2.78-.19,1.81.67,2.73,1.05-.56.9-.93,2.31-1.71,2.59-1.64.59-3.5.75-5.27.79-5.35.12-9.34,2.85-11.24,7.87-2.54,6.71.49,13.33,6.88,15.02,7.62,2.02,14.76-3.59,15.18-12.09.2-3.96.03-7.94.03-11.92Z"/><path class="cls-13" d="M599.52,67.1c1.4.06,2.66.12,3.92.18v.31h-14.77l-.02-.23c1.24-.09,2.49-.18,4.1-.3.04-.91.12-1.85.12-2.8,0-12.82.01-25.63,0-38.45,0-5.2-.49-5.77-5.37-6.58,9.78-1.09,11.48.16,12.14,7.59,3.19-5.89,7.98-8.84,14.31-9.12,10.05-.44,16.97,6.07,17.09,16.11.11,9.14,0,18.28.04,27.42.02,4.7.76,5.52,5.57,6.25-.32.15-.45.26-.58.26-10.61.35-11.42-.44-11.42-11,0-7.55.03-15.1,0-22.65-.04-7.87-4.92-13.08-12.31-13.22-7.38-.14-12.89,5.32-12.94,13.04-.08,10.43-.02,20.86-.02,31.29,0,.57.09,1.15.15,1.89Z"/><path class="cls-18" d="M791.19,67.15c.07-5.16.19-10.32.21-15.47.04-8.74.03-17.48,0-26.23-.02-4.77-.64-5.47-5.14-6.2,8.62-1.46,11.33.2,11.71,7.61.67-.95,1.13-1.62,1.61-2.29,4.03-5.57,9.66-7.54,16.25-6.71,5.98.75,10.48,3.86,12.55,9.65.78,2.19,1.11,4.64,1.15,6.99.13,8.84.04,17.68.06,26.52.01,4.86.66,5.63,5.51,6.57-.46.09-.69.18-.93.18-9.98.32-10.98-.65-10.98-10.58,0-7.65.03-15.3,0-22.95-.04-8.08-4.97-13.35-12.45-13.38-7.51-.03-12.83,5.48-12.84,13.46-.01,10.92.07,21.85.12,32.77-.06.21-.12.41-.18.62-2.16,0-4.33,0-6.49,0-.05-.19-.09-.38-.14-.58Z"/><path class="cls-14" d="M715.91,19.11c0,12.93,0,25.64,0,38.34,0,.99,0,1.99,0,2.98.03,5.19.66,6.05,5.29,7.19-9.34.71-11.26-.44-11.6-7.22-.37.31-.69.48-.87.74-4.14,5.75-10.26,7.91-16.74,5.87-6.02-1.89-9.47-6.79-9.54-13.92-.09-8.24-.02-16.48-.03-24.73,0-.99.02-1.99,0-2.98-.11-4.68-.79-5.47-5.26-6.4,2.29,0,4.6-.17,6.87.04,3.21.3,4.74,2.32,4.75,6.08.04,9.43-.02,18.87.03,28.3.02,4,1.32,7.49,5.14,9.41,3.66,1.84,7.38,1.53,10.84-.57,3.58-2.17,4.84-5.61,4.83-9.64-.02-10.13,0-20.26,0-30.39v-3.12h6.29Z"/><path class="cls-3" d="M532.49,53.91c-.6,1.05-1.1,2.18-1.83,3.14-12.33,16.07-36.73,13.82-45.13-4.57-6.14-13.44-5.7-27.08,3.83-39.05,10.28-12.92,31.93-12.44,40.97.45.84,1.2,1.52,2.57,2,3.95.73,2.11-.15,3.79-2.13,4.62-2.03.84-3.75.12-4.78-1.83-.46-.86-.71-1.84-.98-2.79-3.68-12.96-18.21-16.86-27.83-7.33-6.99,6.93-8.55,15.85-7.79,25.06.42,5.03,1.61,10.32,3.84,14.81,7.39,14.85,25.84,17.22,37.27,5.15.65-.68,1.08-1.56,1.61-2.35.31.25.63.5.94.76Z"/><path class="cls-2" d="M143.07,67.7h-5.91l-.29-.72c.03-14,.1-28,.06-42.01-.01-4.15-1.03-5.06-5.38-5.73,9.8-1.17,11.7.41,11.85,7.84,2.74-4.78,6.32-7.78,11.35-8.97,10.76-2.56,20.09,4.51,20.18,15.48.08,9.14,0,18.27.03,27.41.01,4.65.92,5.71,5.7,6.58-.53.1-.75.17-.97.17-10.42.13-10.95-.39-10.95-10.82,0-7.75.07-15.49-.03-23.24-.08-6.18-3.32-10.64-8.62-12.22-5.57-1.67-11.69.2-14.47,4.91-1.26,2.13-2.2,4.8-2.25,7.24-.21,11.12-.05,22.24-.02,33.36l-.28.71Z"/><path class="cls-9" d="M434.59,67.57c-9.73.75-11.6-.29-11.78-8.69-.52.74-.84,1.15-1.1,1.59-3.86,6.52-11.97,9.51-19.19,7.08-7.55-2.54-10.52-11.4-5.66-18.33,2.26-3.23,5.72-5.62,8.7-8.46-.49-.27-1.51-.79-2.49-1.37-7.22-4.28-7.7-13.35-.97-18.34,5.74-4.26,15.26-4.56,21.2-.61,4.05,2.69,5.98,6.54,5.99,11.35.02,9.63,0,19.27.02,28.9.01,4.94.8,5.93,5.28,6.89ZM422.6,40.41c.13,0,.27,0,.4,0,0-3.97.09-7.95-.02-11.92-.14-5.07-2.86-8.51-7.37-9.59-5.11-1.23-10.14,1.18-12.11,5.8-2.1,4.92-.41,12.14,3.56,14.54.76.46,2.05.44,2.96.18,2.19-.62,4.27-1.68,6.48-2.21.78-.18,1.8.67,2.71,1.05-.47.78-.79,2.03-1.45,2.26-1.85.64-3.83,1.11-5.78,1.18-5.38.19-9.27,2.84-11.15,7.93-3.15,8.51,2.86,16.43,11.5,15.16,5.3-.78,9.58-4.49,10.16-9.84.51-4.8.11-9.69.11-14.55Z"/><path class="cls-15" d="M583.89,43.03c-.44,5.8-1.77,11.14-5.06,15.84-4.7,6.73-11.41,9.41-19.44,8.75-8.81-.72-14.88-5.53-18.01-13.59-3.46-8.91-2.96-17.79,2.33-25.93,4.82-7.42,12.16-10.03,20.73-9.02,8.4.99,14.06,5.83,16.97,13.6,1.23,3.29,1.67,6.88,2.47,10.34ZM577.51,43.13c-1.09-4.39-1.77-8.94-3.38-13.13-2.02-5.27-5.79-9.02-11.95-9.36-6.3-.35-10.56,2.93-13.02,8.24-4.75,10.25-4.83,20.65,1.07,30.5,5.36,8.95,16.77,8.85,22.39.09,3.17-4.94,4.17-10.44,4.89-16.34Z"/><path class="cls-3" d="M658.35,67.87c-10.94-.07-19.75-10.93-17.5-21.59.41-1.96,1.14-4.16,3.78-3.66,2.45.47,2.73,2.55,2.5,4.7-.35,3.24-1.16,6.52-.88,9.71.68,7.71,8.98,11.91,15.86,8.33,6.45-3.35,7.51-11.92,1.77-16.35-2.63-2.03-5.86-3.31-8.85-4.87-2.64-1.38-5.46-2.46-7.97-4.04-5.01-3.15-6.87-7.88-5.59-13.3,1.11-4.68,5.34-8.33,11.03-8.41,3.56-.05,7.24.87,10.68,1.96,2.21.7,3.82,2.86,3.27,5.41-.24,1.13-1.71,2.69-2.71,2.76-1,.07-2.19-1.41-3.13-2.37-.32-.33-.11-1.15-.21-1.74-.49-3.07-2.33-5.01-5.12-5.43-3.01-.45-5.84,1.05-7.13,3.78-2.07,4.4-.98,9.43,3.09,12.19,2.69,1.82,5.78,3.07,8.7,4.56,2.3,1.17,4.73,2.15,6.92,3.49,5.62,3.45,8.17,9.23,6.8,14.95-1.24,5.17-6.66,9.34-12.91,9.9-.79.07-1.6,0-2.39,0Z"/><path class="cls-3" d="M203.11,67.94c-12.99.06-19.15-11.41-18.52-20.34.24-3.42,1.89-5.36,3.87-5.1,2.21.3,2.94,2.63,2.51,6.13-.42,3.39-.94,6.95-.32,10.23.99,5.23,6.7,8.53,11.9,7.65,5.67-.96,9.29-5.35,8.96-10.85-.22-3.62-2.24-6.16-5.2-7.87-2.83-1.64-5.9-2.86-8.83-4.34-2.48-1.25-5.05-2.41-7.33-3.97-4.06-2.79-5.7-6.85-4.9-11.68.84-5.07,4.17-8.03,9.03-9.19,4.51-1.08,8.96-.59,13.04,1.72,2.12,1.2,3.67,3.05,3.06,5.59-.25,1.06-1.61,2.48-2.59,2.59-.96.11-2.19-1.14-3.09-2.01-.4-.39-.31-1.3-.4-1.99-.39-3.12-2.11-5.04-4.96-5.52-2.9-.48-5.67.87-7.04,3.43-2.33,4.35-1.32,9.69,2.79,12.47,2.77,1.88,5.96,3.17,8.96,4.7,2.3,1.18,4.72,2.16,6.9,3.52,5.47,3.42,7.96,8.96,6.7,14.39-1.28,5.52-6.17,9.55-12.51,10.31-.89.11-1.79.1-2.05.12Z"/><path class="cls-9" d="M373.59,67.87c-12.71.02-18.9-12.45-17.47-21.37.33-2.03,1.03-4.45,3.88-3.87,2.65.54,2.68,2.84,2.43,5.02-.34,2.94-1.1,5.9-.97,8.82.24,5.66,4.7,9.83,10.25,10.15,5.26.3,9.87-3.09,10.97-8.2.92-4.27-.65-7.74-4.21-10.02-2.99-1.92-6.35-3.28-9.53-4.9-2.3-1.17-4.7-2.2-6.85-3.61-4.76-3.12-6.61-8-5.26-13.16,1.22-4.69,5.25-7.85,10.76-8.46,3.87-.43,7.59.06,10.99,2.01,2.11,1.21,3.72,2.99,3.16,5.55-.23,1.07-1.61,2.65-2.47,2.65-1.12,0-2.29-1.27-3.33-2.13-.28-.23-.14-.94-.2-1.43-.43-3.64-2.32-5.67-5.52-5.96-3.34-.3-5.94,1.44-7.07,4.73-1.58,4.64-.41,8.83,3.7,11.5,2.73,1.78,5.81,3.02,8.74,4.5,2.22,1.12,4.54,2.07,6.64,3.37,5.65,3.51,8.09,9.14,6.71,14.96-1.22,5.16-6.67,9.31-12.94,9.85-.79.07-1.6,0-2.39,0Z"/><path class="cls-15" d="M306.63,37.52h-36.06c-2.12,7.11,1.47,17.97,7.29,22.42,7.43,5.68,17.14,5.34,28.03-1.32-.53,1.03-.69,1.64-1.07,2.05-6.96,7.22-15.52,9.06-24.95,6.62-9.1-2.36-13.78-9.06-15.55-17.83-1.72-8.51,0-16.42,5.61-23.19,8.78-10.59,27.21-10.01,34.34,1,1.93,2.98,2.92,6.25,2.36,10.24ZM270.32,36.76c8.97,0,17.74.06,26.52-.03,3.06-.03,4-1.25,4-4.33,0-5.2-3.18-9.69-8.23-11.65-10.55-4.1-21.56,3.65-22.29,16.02Z"/><path class="cls-8" d="M316.93,66.6c0-13.41.02-26.83.02-40.24,0-5.52-.49-6.15-5.48-7.18,8.26-1.05,10.37-.14,12.17,5.56.38-.44.66-.74.91-1.07,3.71-4.95,9.47-7.06,15.31-5.59,5.99,1.51,9.73,5.86,10.54,12.26.35,2.73-.71,4.64-2.79,4.76-2.88.17-3.37-1.8-3.56-4.08-.7-8.45-9.08-12.48-16.21-7.79-3.19,2.1-4.53,5.18-4.53,8.9.01,11.52.04,23.05.06,34.57-.15.35-.3.7-.46,1.05h-5.86c-.04-.38-.09-.76-.13-1.15Z"/><path class="cls-11" d="M740.09,67.57c-2.19,0-4.56.19-6.88-.05-2.74-.27-4.24-2.04-4.48-4.77-.1-1.19-.1-2.38-.1-3.57,0-18.38,0-36.77,0-55.15,0-1.07,0-2.15,0-3.37-1.49-.1-2.75-.18-4-.26,0-.1,0-.2,0-.3h10.34c0,.97,0,2.02,0,3.07,0,19.18,0,38.36,0,57.54,0,4.93.74,5.86,5.12,6.87Z"/><path class="cls-15" d="M450.08,67.68c-5.31.74-7.77-1.3-7.77-6.98,0-18.88,0-37.76,0-56.63,0-1.08,0-2.16,0-3.43-1.58-.1-3-.19-4.41-.28,0-.12.01-.24.02-.36h10.83v3.16c0,18.98-.05,37.95.06,56.93.01,2.44.81,4.87,1.29,7.58Z"/><path class="cls-5" d="M847.05,52.95c.75-.6,1.49-1.2,2.43-1.96-5.7-3.33-8.46-8.36-8.94-14.63-.72-9.41,5.58-16.46,16.24-18.33,11.84-2.07,21.32,4.49,23.04,15.95,1.28,8.51-4.3,16.36-12.62,17.71-.54.09-1.1.01-2.29.01,6.52-4.59,9.49-10.36,9.28-17.8-.25-8.84-5.84-14.99-13.73-14.84-8.29.16-14.59,6.94-13.76,15.73.42,4.42,2.2,8.75,3.67,13.01.66,1.93,2.35,2.65,4.61,2.17,1.81-.39,3.78-.47,5.6-.2.85.13,1.54,1.41,2.3,2.16-.85.72-1.69,2.02-2.56,2.04-1.94.04-3.9-.58-5.85-.89-2.3-.36-4.66-1.58-6.82.41-.19-.19-.39-.37-.58-.56Z"/><path class="cls-4" d="M23.69,67.12c.04-18.81.11-37.62.08-56.43,0-1.44-.72-2.88-1.11-4.32.37-.62.75-1.24,1.12-1.86,2.2,0,4.4-.02,6.6-.03.11.33.23.65.34.98-.02,19.91-.04,39.82-.04,59.73,0,.67.22,1.35.33,2.02-.14.15-.17.31-.08.49h-7.1c-.05-.19-.1-.39-.15-.58Z"/><path class="cls-13" d="M760.19,67.78c-7.76-1.42-11.35-5.74-11.41-13.23-.09-10.42-.03-20.84-.03-31.26,0-1.08,0-2.15,0-3.36-1.97-.09-3.71-.17-5.44-.26-.01-.2-.03-.41-.04-.61h5.16c1.27-9.36.54-12.69-2.99-14.15.14-.09.25-.24.37-.25,8.54-.18,9.35.61,9.35,9.21,0,1.57,0,3.14,0,4.91,1.94.09,3.67.17,5.41.25.02.2.03.39.05.59-1.67.1-3.34.2-5.46.33v3.12c0,8.83-.06,17.66.02,26.49.06,6.31-1.08,12.94,5.02,18.22Z"/><path class="cls-10" d="M770.51,66.69c.02-13.89.09-27.79.04-41.68-.01-4.25-.8-4.96-5.27-5.8.04-.05.08-.14.12-.15,9.97-.55,11.81,0,11.6,10.33-.26,12.4-.04,24.81-.04,37.22-.05.38-.09.76-.14,1.15-1.95,0-3.9,0-5.85,0-.15-.35-.3-.71-.45-1.06Z"/><path class="cls-14" d="M847.05,52.95c.19.19.39.37.58.56-.68,2.85.68,4.55,3.36,4.86,3.44.39,6.94.28,10.41.51,4.65.31,9.4.25,13.93,1.21,8.03,1.7,11.04,7.63,8.18,15.29-1.27,3.4-3.2,6.4-6.67,8.27.89-2.5,2.04-4.68,2.41-6.98.85-5.39-1.84-9.74-7.13-11.15-3.32-.88-6.86-1-10.32-1.23-4.66-.3-9.34-.37-14.01-.54-.28-.03-.56-.06-.85-.1-4.19-3.46-4.15-7.25.12-10.69Z"/><path class="cls-10" d="M234.84,67.64c-5.93.33-7.83-1.41-7.84-7.21,0-12.5,0-24.99,0-37.49,0-1.07,0-2.14,0-3.29-1.64-.08-2.99-.14-4.34-.21,0-.12,0-.24.01-.35h14.72c.01.11.03.22.04.33-1.26.08-2.52.15-3.94.24-.06.82-.16,1.59-.16,2.36,0,12.79-.08,25.59.06,38.38.02,2.07.97,4.13,1.49,6.19-.01.35-.03.71-.04,1.06Z"/><path class="cls-15" d="M234.84,67.64c.01-.35.03-.71.04-1.06,4.17,1.26,4.2,1.23,5.46-3.05,3.55-12.05,7.12-24.1,10.67-36.16,2.18-7.41,3.64-8.51,11.37-8.45.69,0,1.38,0,2.24.23-5.58-.04-6.61,4.04-7.82,8.04-3.85,12.69-7.81,25.34-11.59,38.05-.59,1.99-1.43,2.76-3.5,2.58-2.27-.2-4.58-.13-6.86-.17Z"/><path class="cls-7" d="M846.93,63.64c.28.03.56.06.85.1-3.72,3.87-5.4,8.31-3.41,13.54,2.14,5.65,6.65,8.7,12.39,9.45,3.98.52,8.11-.05,12.17-.16.83-.02,1.65-.18,2.47-.28.08.36.16.72.23,1.08-3.17.72-6.31,1.68-9.52,2.11-5.93.79-11.74.11-17.17-2.55-5.48-2.68-8.07-7.36-7.56-13.3.44-5.07,3.41-8.17,9.55-9.98Z"/><path class="cls-13" d="M44.77,4.5c1.79.04,3.62-.09,5.38.18,2.98.45,5.28,3.24,4.57,5.93-.35,1.32-1.98,2.31-3.02,3.45-1.15-1.05-2.57-1.94-3.37-3.2-.64-1-.26-2.63-.85-3.69-.49-.87-1.74-1.33-2.65-1.97-.02-.23-.03-.46-.05-.69Z"/><path class="cls-9" d="M9.35,5.17c-2.47.57-2.47,2.64-3.01,4.54-.41,1.45-1.27,2.95-2.38,3.93-.5.45-2.77,0-3.04-.59C.25,11.59-.21,9.71.1,8.17c.47-2.33,2.47-3.46,4.86-3.6,1.48-.09,2.96-.04,4.45-.06-.02.22-.04.44-.06.66Z"/><path class="cls-13" d="M777.37,9.48c-.04,2.18-1.86,3.85-4.15,3.78-2.3-.07-3.92-1.78-3.76-4.09.17-2.37,1.58-3.58,3.9-3.65,2.23-.06,4.04,1.8,4,3.96Z"/><path class="cls-7" d="M875.69,11.16c2.32.05,3.92,1.74,3.84,4.02-.08,2.25-1.88,3.94-4.15,3.72-2.32-.22-3.6-1.62-3.71-3.9-.11-2.24,1.71-3.9,4.01-3.84Z"/><path class="cls-6" d="M9.35,5.17c.02-.22.04-.44.06-.66,4.79,0,9.58,0,14.37,0-.37.62-.75,1.24-1.12,1.86-3.36-.35-6.72-.72-10.08-1.05-1.07-.1-2.16-.1-3.24-.15Z"/><path class="cls-6" d="M44.77,4.5c.02.23.03.46.05.69-4.7.09-9.39.18-14.09.27-.11-.33-.23-.65-.34-.98,4.8,0,9.59.01,14.39.02Z"/><path class="cls-12" d="M68.1,67.76l.34-1.29c1.47.25,2.93.49,4.4.74-.01.18-.02.36-.04.55h-4.7Z"/><path class="cls-17" d="M316.93,66.6c.04.38.09.76.13,1.15h-4.65c-.03-.17-.06-.33-.08-.5,1.53-.22,3.07-.43,4.6-.65Z"/><path class="cls-17" d="M322.93,67.75c.15-.35.3-.7.46-1.05,1.42.15,2.84.3,4.25.45,0,.2-.01.4-.02.6h-4.69Z"/><path class="cls-1" d="M770.51,66.69c.15.35.3.71.45,1.06-1.57.07-3.15.14-4.72.21-.03-.25-.06-.49-.09-.74l4.35-.53Z"/><path class="cls-1" d="M776.82,67.75c.05-.38.09-.76.14-1.15,1.51.19,3.02.37,4.52.56,0,.2,0,.39,0,.59-1.55,0-3.1,0-4.66,0Z"/><path class="cls-12" d="M62.07,66.58c.05.39.11.79.16,1.18h-4.66c-.03-.18-.06-.36-.09-.53,1.53-.21,3.06-.43,4.59-.64Z"/><path class="cls-16" d="M30.94,67.7c-.08-.18-.06-.35.08-.49h4.23c0,.16,0,.33,0,.49h-4.32Z"/><path class="cls-16" d="M136.88,66.98l.29.72h-4.59c0-.16-.01-.32-.02-.48,1.44-.08,2.89-.16,4.33-.24Z"/><path class="cls-16" d="M143.07,67.7c.09-.24.19-.48.28-.71,1.44.07,2.89.15,4.33.22,0,.16-.01.33-.02.49h-4.59Z"/><path class="cls-19" d="M791.19,67.15c.05.19.09.38.14.58-1.44,0-2.87,0-4.31,0v-.58c1.38,0,2.78,0,4.17,0Z"/><path class="cls-19" d="M797.82,67.72c.06-.21.12-.41.18-.62,1.44,0,2.88,0,4.32,0,0,.21,0,.41,0,.62-1.5,0-3,0-4.5,0Z"/><path class="cls-16" d="M23.69,67.12c.05.19.1.39.15.58h-4.58c0-.19,0-.39,0-.58h4.43Z"/></g></svg>